<?xml version="1.0" encoding="UTF-8" standalone="no"?>
<svg
   xmlns:dc="http://purl.org/dc/elements/1.1/"
   xmlns:cc="http://creativecommons.org/ns#"
   xmlns:rdf="http://www.w3.org/1999/02/22-rdf-syntax-ns#"
   xmlns:svg="http://www.w3.org/2000/svg"
   xmlns="http://www.w3.org/2000/svg"
   xmlns:sodipodi="http://sodipodi.sourceforge.net/DTD/sodipodi-0.dtd"
   xmlns:inkscape="http://www.inkscape.org/namespaces/inkscape"
   id="workspace"
   style="text-rendering:geometricPrecision"
   version="1.1"
   sodipodi:docname="logo.svg"
   inkscape:version="0.92.2 (5c3e80d, 2017-08-06)"
   width="700"
   height="458"
   inkscape:export-filename="/home/riska/Adatbank/Programozas/Ingatlanfigyelo/frontend/docs/logo/logo.png"
   inkscape:export-xdpi="109.62445"
   inkscape:export-ydpi="109.62445">
  <metadata
     id="metadata12">
    <rdf:RDF>
      <cc:Work
         rdf:about="">
        <dc:format>image/svg+xml</dc:format>
        <dc:type
           rdf:resource="http://purl.org/dc/dcmitype/StillImage" />
      </cc:Work>
    </rdf:RDF>
  </metadata>
  <defs
     id="defs10" />
  <sodipodi:namedview
     pagecolor="#ffffff"
     bordercolor="#666666"
     borderopacity="1"
     objecttolerance="10"
     gridtolerance="10"
     guidetolerance="10"
     inkscape:pageopacity="0"
     inkscape:pageshadow="2"
     inkscape:window-width="1920"
     inkscape:window-height="1001"
     id="namedview203"
     showgrid="false"
     inkscape:zoom="1.4037438"
     inkscape:cx="360.67477"
     inkscape:cy="248.18673"
     inkscape:window-x="0"
     inkscape:window-y="27"
     inkscape:window-maximized="1"
     inkscape:current-layer="workspace"
     inkscape:snap-global="true" />
  <path
     d="m 700,224.12614 c 0,12.47458 -10.00765,22.56431 -22.38246,22.56431 H 411.49243 c -6.30995,0 -12.00366,-2.61768 -16.07953,-6.87936 L 219.77039,57.059914 38.209958,240.08627 c -4.061913,4.09234 -9.650529,6.61125 -15.834448,6.61125 C 10.007708,246.69752 0,236.60072 0,224.1332 0,217.90296 2.507174,212.26541 6.5480746,208.19424 L 204.20201,8.9467 c 4.05486,-4.07117 9.65749,-6.61124 15.83439,-6.61124 6.31006,0 12.01069,2.63179 16.07258,6.86525 l 51.46019,53.567314 H 425.53402 V 0 h 59.38093 v 62.768024 h 72.04284 c 6.70222,0 12.73195,2.98459 16.84293,7.68372 L 694.4605,209.25966 c 3.45247,3.97945 5.5395,9.20071 5.5395,14.86648 z M 158.04327,216.2872 h 48.84094 v -49.23508 h -48.84094 z m 73.63962,0 h 48.83394 v -49.23508 h -48.83394 z m -73.63961,70.45879 h 48.84094 V 237.51092 H 158.04327 Z M 231.68289,287 h 48.83394 v -49.24213 h -48.83394 z"
     id="path3"
     inkscape:connector-curvature="0"
     style="fill:#3f51b5;stroke-width:7.02947426" />
  <rect
     y="440"
     width="700"
     height="18"
     id="rect5"
     x="0"
     style="fill:#3f51b5;stroke-width:3.14251018" />
  <text
     x="354.52014"
     y="218.4507"
     style="font-style:normal;font-variant:normal;font-weight:normal;font-stretch:normal;font-size:117.10958099px;font-family:Teko;-inkscape-font-specification:'Teko, Normal';font-variant-ligatures:normal;font-variant-caps:normal;font-variant-numeric:normal;font-feature-settings:normal;text-align:center;writing-mode:lr-tb;text-anchor:middle;fill:#3f51b5;stroke-width:1.26167798"
     dy="167.29861"
     id="text7"
     transform="scale(0.97551077,1.025104)">Ingatlanfigyelő</text>
</svg>
