<?xml version="1.0" encoding="UTF-8"?>
<svg xmlns="http://www.w3.org/2000/svg" xmlns:xlink="http://www.w3.org/1999/xlink" id="workspace" style="text-rendering: geometricPrecision; cursor: auto;">
  <desc>Created with Snap</desc>
  <defs>
    <linearGradient x1="0" y1="0.5" x2="1" y2="0.5" id="Sja6kee7z1c">
      <stop offset="0%" stop-color="#419a1c" />
      <stop offset="100%" stop-color="#153607" />
    </linearGradient>
    <linearGradient x1="0" y1="0.5" x2="1" y2="0.5" id="Sja6kee7z1l">
      <stop offset="0%" stop-color="#74d14c" />
      <stop offset="100%" stop-color="#74d14c" />
    </linearGradient>
    <linearGradient x1="0" y1="0.5" x2="1" y2="0.5" id="Sja6kee7z1s">
      <stop offset="0%" stop-color="#153607" />
      <stop offset="100%" stop-color="#153607" />
    </linearGradient>
    <linearGradient x1="0" y1="0.5" x2="1" y2="0.5" id="Sja6kee7z1v">
      <stop offset="0%" stop-color="#419a1c" />
      <stop offset="100%" stop-color="#153607" />
    </linearGradient>
    <linearGradient x1="0" y1="0.5" x2="1" y2="0.5" id="Sja6kee7z1y">
      <stop offset="0%" stop-color="#74d14c" />
      <stop offset="100%" stop-color="#74d14c" />
    </linearGradient>
    <linearGradient x1="0" y1="0.5" x2="1" y2="0.5" id="Sja6kee7z21">
      <stop offset="0%" stop-color="#153607" />
      <stop offset="100%" stop-color="#153607" />
    </linearGradient>
    <linearGradient x1="0" y1="0.5" x2="1" y2="0.5" id="Sja6kee7z24">
      <stop offset="0%" stop-color="#419a1c" />
      <stop offset="100%" stop-color="#153607" />
    </linearGradient>
    <linearGradient x1="0" y1="0.5" x2="1" y2="0.5" id="Sja6kee7z27">
      <stop offset="0%" stop-color="#74d14c" />
      <stop offset="100%" stop-color="#74d14c" />
    </linearGradient>
    <linearGradient x1="0" y1="0.5" x2="1" y2="0.5" id="Sja6kee7z2a">
      <stop offset="0%" stop-color="#153607" />
      <stop offset="100%" stop-color="#153607" />
    </linearGradient>
    <linearGradient x1="0" y1="0.5" x2="1" y2="0.5" id="Sja6kee7z2n">
      <stop offset="0%" stop-color="#419a1c" />
      <stop offset="100%" stop-color="#153607" />
    </linearGradient>
    <linearGradient x1="0" y1="0.5" x2="1" y2="0.5" id="Sja6kee7z2q">
      <stop offset="0%" stop-color="#153607" />
      <stop offset="100%" stop-color="#153607" />
    </linearGradient>
    <linearGradient x1="0" y1="0.5" x2="1" y2="0.5" id="Sja6kee7z2t">
      <stop offset="0%" stop-color="#153607" />
      <stop offset="100%" stop-color="#153607" />
    </linearGradient>
    <linearGradient x1="0" y1="0.5" x2="1" y2="0.5" id="Sja6kee7z2w">
      <stop offset="0%" stop-color="#153607" />
      <stop offset="100%" stop-color="#153607" />
    </linearGradient>
    <linearGradient x1="0" y1="0.5" x2="1" y2="0.5" id="Sja6kee7z2z">
      <stop offset="0%" stop-color="#153607" />
      <stop offset="100%" stop-color="#153607" />
    </linearGradient>
  </defs>
  <g class="background-part">
    <rect x="0" y="0" width="1650" height="843" fill="rgba(255,255,255,0.25)" style="" />
  </g>
  <g class="selector-part" />
  <g class="selector-part">
    <rect x="0" y="0" width="950" height="843" fill="rgba(255,255,255,0)" style="transition: 0.6s;" />
  </g>
  <rect x="0" y="0" width="0" height="0" fill="rgba(168,202,236,0.5)" stroke="#3399ff" style="stroke-width: 1;" />
  <g class="selector-part" transform="matrix(1,0,0,1,513,458)">
    <rect x="0" y="0" width="0" height="0" fill="rgba(255,255,255,0)" style="cursor: move;" />
  </g>
  <g class="svg-clip svg-visible" style="cursor: move; opacity: 1;" transform="matrix(5.745,0,0,5.745,492.8964,221.3745)">
    <rect x="0" y="0" width="109" height="50" fill="none" style="" class="svg-hitbox" />
    <svg width="109.95299999999999" height="50.67600000000001" viewBox="-4.978,22.720999999999997,109.95299999999999,50.67600000000001">
      <desc>Created with Snap</desc>
      <defs />
      <g />
      <g />
      <g>
        <path d="M99.975,59.486c0,1.768-1.429,3.198-3.196,3.198H58.779c-0.901,0-1.714-0.371-2.296-0.975  l-25.08-25.901L5.478,61.748c-0.58,0.58-1.378,0.937-2.261,0.937c-1.766,0-3.195-1.431-3.195-3.198c0-0.883,0.358-1.682,0.935-2.259  L29.18,28.989c0.579-0.577,1.379-0.937,2.261-0.937c0.901,0,1.715,0.373,2.295,0.973l7.348,7.592h19.7v-8.896h8.479v8.896H79.55  c0.957,0,1.818,0.423,2.405,1.089l17.229,19.673C99.677,57.943,99.975,58.683,99.975,59.486z M22.589,58.375h6.974v-6.978h-6.974  V58.375z M33.104,58.375h6.973v-6.978h-6.973V58.375z M22.589,68.361h6.974v-6.978h-6.974V68.361z M33.104,68.397h6.973v-6.979  h-6.973V68.397z" fill="url('#Sja6kee7z2n')" />
      </g>
    </svg>
  </g>
  <g class="svg-clip svg-visible" style="cursor: move; opacity: 1;" transform="matrix(3.2878,0,0,1.0753,505.2309,599.8602)">
    <rect x="0" y="0" width="186" height="17" fill="none" style="" class="svg-hitbox" />
    <svg width="186.742" height="17.218999999999994" viewBox="-5,79.525,186.742,17.218999999999994" class="thumb">
      <desc>Created with Snap</desc>
      <defs />
      <g />
      <g />
      <g>
        <rect y="84.525" width="176.742" height="7.219" fill="url('#Sja6kee7z27')" />
      </g>
    </svg>
  </g>
  <g class="svg-text svg-visible" style="pointer-events: fill; cursor: move; opacity: 1;" transform="matrix(0.8713,0,0,0.8713,810,463)">
    <path fill="none" d="M-50,151 C280.796875,150 320.796875,150 651.59375,151" style="" />
    <text x="0" y="0" fill="url('#Sja6kee7z2z')" style="font-size: 100px; font-family: &quot;Fredericka The Great&quot;; text-anchor: middle;" dy="118.95">Property now</text>
    <rect x="0" y="0" width="0" height="0" />
  </g>
  <g>
    <rect x="0" y="0" width="0" height="0" fill="rgba(255,136,0,0.1)" stroke="#ff8800" style="stroke-width: 1;" />
  </g>
  <g class="selector-part" transform="matrix(1,0,0,1,513,458)">
    <rect x="0" y="0" width="0" height="0" fill="none" stroke="#2390bb" style="stroke-width: 2;" />
    <g transform="matrix(0.5,0,0,0.5,0,0)">
      <svg version="1.1" id="Calque_1" x="611.5" y="-71px" width="28.94px" height="30px" viewBox="0 -15 28.94 30" enable-background="new 0 -15 28.94 30" xml:space="preserve" style="cursor: pointer;">
<g>
	<path fill="rgba(0,0,0,0)" d="M23.355-9.979c-0.352-0.263-0.712-0.511-1.084-0.739L20.34-7.486c0.317,0.195,0.629,0.414,0.929,0.646   L23.355-9.979z" style="" />
	<path fill="rgba(0,0,0,0)" d="M28.894,0.081L25.092-0.13c0.292,2.317-0.217,4.718-1.539,6.756l-0.037-0.021   c-0.376,0.583-0.821,1.137-1.335,1.648c-3.808,3.809-9.902,3.942-13.871,0.396C8.282,8.623,8.255,8.602,8.227,8.576   C8.143,8.498,8.059,8.421,7.976,8.339c-0.052-0.051-0.104-0.1-0.153-0.152C7.8,8.163,7.776,8.14,7.753,8.115   c-0.084-0.091-0.167-0.18-0.25-0.271v0.002C4.312,4.293,4.087-0.98,6.821-4.782l4.123,4.124l3.401-14.306L0.037-11.566l4.102,4.098   C-0.064-2.14,0.193,5.554,4.917,10.587l0,0c0.012,0.016,0.023,0.025,0.033,0.037c0.091,0.098,0.181,0.199,0.278,0.293   c0.021,0.023,0.047,0.043,0.07,0.068c0.075,0.074,0.148,0.146,0.225,0.22c0.051,0.045,0.099,0.086,0.15,0.133   c0.053,0.047,0.104,0.094,0.156,0.14c0.144,0.13,0.291,0.257,0.439,0.375c0.01,0.012,0.018,0.016,0.027,0.023   c5.574,4.563,13.804,4.115,18.842-1.194C27.94,7.722,29.185,3.851,28.894,0.081z" style="" />
	<path fill="rgba(0,0,0,0)" d="M24.122-3.353l3.544-1.319c-0.426-0.932-0.962-1.826-1.611-2.662L22.88-5.276   C23.373-4.675,23.79-4.027,24.122-3.353z" style="" />
</g>
<desc>Created with Snap</desc><defs /><circle cx="14.5" cy="0" r="15" style="" fill="rgba(0,0,0,0)" /></svg>
    </g>
    <rect x="313" y="-21" width="0" height="21" fill="rgba(255,255,255,0)" stroke="#2390bb" style="stroke-width: 1; cursor: pointer;" />
    <circle cx="594" cy="169" r="0" fill="#ffffff" stroke="#2390bb" style="stroke-width: 2; cursor: se-resize;" />
    <circle cx="0" cy="169" r="0" fill="#ffffff" stroke="#2390bb" style="stroke-width: 2; cursor: sw-resize;" />
    <circle cx="594" cy="0" r="0" fill="#ffffff" stroke="#2390bb" style="stroke-width: 2; cursor: ne-resize;" />
    <circle cx="0" cy="0" r="0" fill="#ffffff" stroke="#2390bb" style="stroke-width: 2; cursor: nw-resize;" />
    <circle cx="297" cy="169" r="0" fill="#ffffff" stroke="#2390bb" style="stroke-width: 2; cursor: s-resize;" />
    <circle cx="297" cy="0" r="0" fill="#ffffff" stroke="#2390bb" style="stroke-width: 2; cursor: n-resize;" />
    <circle cx="0" cy="85" r="0" fill="#ffffff" stroke="#2390bb" style="stroke-width: 2; cursor: w-resize;" />
    <circle cx="594" cy="85" r="0" fill="#ffffff" stroke="#2390bb" style="stroke-width: 2; cursor: e-resize;" />
    <path stroke="#ff0000" fill="none" style="stroke-width: 3;" />
    <line x1="0" x2="0" y1="0" y2="0" fill="rgba(255,255,255,0)" stroke="#2390bb" style="stroke-width: 1;" />
    <line x1="0" x2="0" y1="0" y2="0" fill="rgba(255,255,255,0)" stroke="#2390bb" style="stroke-width: 1;" />
    <circle cx="0" cy="0" r="0" fill="#ff0000" stroke="#2390bb" style="stroke-width: 2; cursor: pointer;" />
    <circle cx="0" cy="0" r="0" fill="#ffa500" stroke="#2390bb" style="stroke-width: 2; cursor: pointer;" />
    <circle cx="0" cy="0" r="0" fill="#ffa500" stroke="#2390bb" style="stroke-width: 2; cursor: pointer;" />
    <circle cx="0" cy="0" r="0" fill="#ff0000" stroke="#2390bb" style="stroke-width: 2; cursor: pointer;" />
    <g style="cursor: pointer; visibility: hidden; opacity: 0;" transform="matrix(1,0,0,1,-50,-15)">
      <rect x="0" y="0" width="30" height="30" fill="#2390bb" rx="5" ry="5" style="" />
      <rect x="6" y="6" width="18" height="4" style="" fill="#ffffff" />
      <rect x="6" y="13" width="18" height="4" fill="#ffffff" style="" />
      <rect x="6" y="20" width="18" height="4" fill="#ffffff" style="" />
    </g>
  </g>
</svg>
